<svg id="f17d7c38-c419-4d50-97c6-81e891b91448" data-name="Layer 1" xmlns="http://www.w3.org/2000/svg" viewBox="0 0 33 32"><path d="M20,8V6.05a1,1,0,0,0-.33-.74,1,1,0,0,0-.77-.26,11,11,0,0,0-9.13,7H4a1,1,0,0,0-1,1v6a1,1,0,0,0,1,1H8" style="fill:none;stroke:#fff;stroke-linecap:round;stroke-linejoin:round;stroke-width:1.75px"/><path d="M11.22,22.62A11,11,0,0,0,18.9,27a1,1,0,0,0,.77-.26A1,1,0,0,0,20,26V14.29" style="fill:none;stroke:#fff;stroke-linecap:round;stroke-linejoin:round;stroke-width:1.75px"/><path d="M1,27,26,2" style="fill:none;stroke:#fff;stroke-linecap:round;stroke-linejoin:round;stroke-width:1.75px"/><rect width="33" height="32" style="fill:none"/></svg>