<svg id="ed2017cf-3979-4253-9e5e-bd73695a8ce9" data-name="Layer 1" xmlns="http://www.w3.org/2000/svg" viewBox="0 0 33 32"><path d="M9.76,12H4a1,1,0,0,0-1,1v6a1,1,0,0,0,1,1H9.76a11,11,0,0,0,9.14,7,1,1,0,0,0,.77-.26A1,1,0,0,0,20,26V6.05a1,1,0,0,0-.33-.74,1,1,0,0,0-.77-.26A11,11,0,0,0,9.76,12Z" style="fill:none;stroke:#fff;stroke-linecap:round;stroke-linejoin:round;stroke-width:1.75px"/><path d="M28.62,20.73a8.8,8.8,0,0,0,0-9.46" style="fill:none;stroke:#fff;stroke-linecap:round;stroke-linejoin:round;stroke-width:1.75px"/><path d="M24.75,19a4.65,4.65,0,0,0,0-5.87" style="fill:none;stroke:#fff;stroke-linecap:round;stroke-linejoin:round;stroke-width:1.75px"/><rect width="33" height="32" style="fill:none"/></svg>